<svg width="818" height="446" viewBox="0 0 818 446" fill="none" xmlns="http://www.w3.org/2000/svg">
<mask id="mask0_613_18" style="mask-type:alpha" maskUnits="userSpaceOnUse" x="0" y="0" width="818" height="446">
<rect width="818" height="446" fill="#D9D9D9"/>
</mask>
<g mask="url(#mask0_613_18)">
<path d="M490.964 365.836C503.069 363.018 513.481 356.645 523.869 350.212C529.964 346.439 535.865 342.363 541.936 338.566C544.173 337.175 546.568 335.894 549.071 335.12C552.034 334.201 554.9 334.926 556.968 337.49C559.036 340.054 559.132 342.859 557.548 345.665C556.641 347.273 555.347 348.664 554.489 350.296C550.534 357.83 554.815 364.361 563.389 363.998C571.746 363.635 577.26 359.487 580.066 351.349C581.613 346.862 584.77 345.06 589.329 345.822C593.634 346.548 595.557 349.389 595.762 353.646C595.968 357.903 594.335 361.446 591.699 364.566C583.464 374.289 572.967 379.199 560.185 378.606C550.171 378.147 543.218 373.165 539.711 363.647C539.264 362.426 539.179 361.035 537.716 359.995C535.382 359.935 533.664 361.785 531.79 363.018C516.529 373.019 500.034 380.094 482.196 383.939C476.174 385.233 470.345 386.818 465.254 390.47C464.395 391.086 463.404 391.51 462.436 391.945C456.22 394.702 451.165 393.723 449.194 389.406C447.15 384.943 449.424 380.408 455.253 377.276C462.001 373.656 466.439 369.976 468.567 366.235C464.891 366.417 462.545 368.666 459.981 370.141C444.563 379.005 429.168 387.918 412.189 393.59C406.397 395.525 400.568 397.048 394.34 397.302C381.872 397.798 372.754 392.997 367.167 381.738C366.719 380.832 365.97 380.07 365.22 379.054C348.81 389.019 331.71 396.758 312.76 399.564C294.705 402.236 278.996 398.137 267.242 383.214C263.094 377.941 261.582 371.52 259.756 364.506C255.959 367.191 254.012 370.685 251.569 373.648C245.45 381.049 238.956 388.027 231.144 393.662C228.133 395.827 225.025 397.907 221.76 399.66C208.639 406.711 196.896 404.087 191.72 393.07C186.049 381.025 192.047 365.473 204.37 360.273C208.614 358.483 213.101 357.976 217.636 358.036C221.832 358.097 224.94 360.019 225.339 364.482C225.69 368.472 223.404 370.988 219.631 372.016C217.334 372.644 214.951 372.898 212.617 373.418C208.639 374.301 205.954 376.659 205.011 380.662C204.454 383.02 204.333 385.451 206.16 387.422C208.324 389.756 210.598 388.293 212.702 387.338C220.042 383.976 226.27 379.03 231.809 373.237C242.112 362.462 250.807 350.393 259.526 338.349C261.776 335.241 262.55 331.601 263.565 328.057C268.439 310.885 275.308 294.547 284.426 279.189C287.691 273.699 291.331 268.475 295.866 263.94C299.3 260.517 303.219 258.474 308.02 261.05C312.869 263.65 313.038 268.136 312.155 272.828C311.079 278.621 308.552 283.905 306.048 289.166C298.285 305.479 289.106 321.019 279.226 336.111C271.958 347.225 272.043 358.737 276.65 370.298C280.665 380.372 289.312 384.859 299.869 385.717C311.575 386.672 322.471 383.25 333.185 379.151C341.118 376.103 348.58 372.076 355.957 367.819C360.697 365.086 363.696 361.894 364.095 356.186C364.434 351.361 366.369 346.91 369.767 343.307C374.894 337.889 383.94 338.095 389.805 343.682C394.679 348.313 394.667 354.989 389.612 360.745C388.052 362.523 386.032 363.889 384.339 365.57C382.247 367.638 378.039 368.388 379.393 372.705C380.88 377.482 383.468 381.448 388.838 382.452C394.195 383.456 399.467 382.645 404.498 380.735C434.755 369.295 462.932 354.311 486.828 332.108C489.851 329.303 493.104 327.84 496.853 330.149C501.025 332.713 501.049 336.934 499.465 340.767C496.333 348.349 492.645 355.714 488.86 364.143C488.751 367.384 489.948 366.368 491 365.836H490.964Z" fill="white" fill-opacity="0.5"/>
<path d="M657.522 5.02781C653.773 21.559 645.405 35.0428 635.887 47.8978C627.023 59.8699 617.288 71.0923 606.513 81.3835C603.466 84.298 601.712 87.5026 601.216 91.6627C599.935 102.232 599.415 112.826 600.551 123.419C601.712 134.17 606.67 136.939 616.188 131.993C625.681 127.059 633.904 120.323 641.027 112.318C642.962 110.141 644.727 107.795 646.602 105.57C649.565 102.051 653.072 99.7287 657.703 102.111C662.105 104.372 663.121 108.46 662.117 112.995C661.077 117.663 659.807 122.307 660.521 127.132C661.452 133.432 663.822 134.823 669.808 132.598C676.375 130.155 681.793 125.838 687.162 121.508C689.024 120.009 690.705 118.28 692.64 116.901C699.17 112.269 704.927 113.986 707.793 121.303C710.731 128.813 712.521 129.55 720.067 126.587C724.602 124.81 728.254 121.799 731.918 118.691C736.732 114.615 740.867 114.506 743.842 117.929C746.732 121.254 746.116 125.68 741.641 129.804C734.277 136.576 725.957 141.571 715.641 142.381C709.014 142.901 702.798 142.175 698.457 136.383C696.437 133.686 694.72 134.521 692.519 136.117C688.879 138.765 685.203 141.438 681.273 143.602C663.472 153.386 652.479 149.395 645.126 130.131C640.591 133.481 636.286 136.891 631.764 139.975C625.149 144.461 618.34 148.549 609.996 148.996C599.076 149.589 592.642 145.441 588.374 135.186C585.108 127.349 585.568 119.078 585.217 110.891C585.133 109.04 585.411 107.166 585.278 105.328C585.096 102.909 583.827 101.942 581.589 103.381C580.041 104.385 578.651 105.654 577.187 106.779C565.409 115.849 553.727 125.04 540.811 132.501C532.939 137.048 524.643 140.398 515.452 141.329C500.07 142.889 490.081 132.344 493.721 117.264C496.611 105.267 504.218 96.645 515.996 92.0738C518.802 90.9854 521.692 90.8645 524.619 90.9734C529.214 91.1547 532.431 93.3436 532.588 98.0841C532.745 102.837 529.746 105.4 525.09 105.594C516.698 105.945 512.272 111.362 509.103 118.074C506.141 124.35 508.317 127.132 515.21 126.382C521.97 125.644 527.969 122.754 533.664 119.332C552.167 108.218 568.771 94.565 585.302 80.8152C587.974 78.6021 588.736 75.7602 589.426 72.5435C594.106 50.4494 599.983 28.7423 611.012 8.77666C615.269 1.06127 620.287 -6.08574 626.491 -12.3379C628.716 -14.5872 631.159 -16.7035 633.783 -18.4691C639.177 -22.0849 644.981 -23.4635 651.016 -20.0049C656.724 -16.7397 658.574 -11.3462 658.453 -5.15457C658.393 -1.98618 657.921 1.1822 657.51 5.01571L657.522 5.02781ZM614.64 50.788C623.891 39.5052 632.791 27.9684 638.765 14.5209C641.607 8.13573 644.244 1.65383 643.095 -5.92853C629.018 2.46407 610.806 36.2763 610.214 54.4643C612.1 54.428 612.717 52.7229 614.64 50.788Z" fill="white" fill-opacity="0.5"/>
<path d="M125.366 45.0794C93.7183 71.007 65.8438 99.6071 44.693 134.23C34.958 150.168 27.3152 167.026 24.0864 185.613C23.9533 186.399 23.6873 187.149 23.5059 187.923C21.9701 194.115 19.0798 196.872 14.811 196.195C10.2156 195.469 8.20814 191.261 9.28443 184.863C13.9403 157.279 26.4566 133.117 42.5283 110.745C64.9731 79.4963 91.6867 52.2748 122.439 29.0803C130.288 23.1547 138.644 18.003 147.569 13.8188C158.416 8.7397 169.772 6.92573 181.671 7.91737C195.385 9.06621 205.785 15.4876 212.932 27.1454C220.285 39.1417 223.211 52.6134 225.726 66.206C227.988 78.4563 229.814 90.8034 232.535 102.945C237.408 124.688 243.636 127.312 262.502 115.86C281.004 104.638 297.051 90.3196 312.47 75.2758C318.746 69.1567 324.938 62.953 331.384 57.0274C335.423 53.3148 339.921 53.2543 342.715 56.2776C345.593 59.3976 345.242 63.4972 341.01 67.4516C321.625 85.567 303.364 104.94 281.415 120.177C275.09 124.579 268.717 128.884 261.752 132.234C242.306 141.594 228.193 135.693 221.264 115.147C217.781 104.819 216.173 94.0322 214.25 83.3419C212.412 73.1716 210.816 62.953 208.071 52.9762C206.728 48.1027 205.084 43.3501 202.834 38.8273C196.558 26.2021 186.545 20.8086 172.348 21.9937C160.303 22.9974 149.927 28.137 140.083 34.6189C135.21 37.8236 130.554 41.3668 125.342 45.0794H125.366Z" fill="white" fill-opacity="0.5"/>
<path d="M763.929 355.1C776.01 349.718 787.74 348.267 800.16 351.641C808.008 353.781 815.953 352.475 823.669 349.96C829.715 347.989 835.762 345.945 841.917 344.361C846.186 343.26 850.6 343.2 852.523 348.485C854.083 352.778 851.797 356.793 845.956 358.474C832.775 362.271 819.956 368.051 805.735 366.927C803.365 366.745 800.813 366.927 798.66 366.116C788.139 362.198 778.308 364.714 768.597 368.886C764.207 370.76 759.95 373.022 755.44 374.497C745.874 377.605 739.622 372.296 740.759 362.343C742.234 349.355 741.944 348.787 729.548 352.669C703.947 360.699 679.701 372.127 655.406 383.373C652.008 384.945 651.234 387.92 650.157 390.871C644.159 407.257 634.231 420.705 620.106 431.02C611.992 436.946 602.97 440.731 592.945 441.311C586.1 441.698 579.449 440.259 575.99 433.342C572.725 426.799 575.083 420.946 579.34 415.71C581.336 413.255 583.524 410.885 585.919 408.817C589.123 406.048 592.546 403.52 595.992 401.041C606.767 393.277 617.845 385.816 629.817 380.193C638.754 375.996 642.841 370.083 642.079 360.445C637.363 360.445 632.441 360.747 627.567 360.384C617.131 359.61 609.682 352.56 609.488 343.708C609.307 335.872 614.168 329.402 622.791 327.056C636.371 323.343 648.476 327.612 659.626 335.098C663.472 337.686 663.472 341.628 661.573 345.764C658.816 351.774 657.691 358.195 657.038 364.774C660.412 365.536 662.516 363.577 664.826 362.561C682.543 354.785 700.211 346.888 718.507 340.479C723.768 338.629 729.089 336.887 734.652 336.38C750.361 334.94 756.734 340.709 756.927 356.43C759.442 358.316 761.208 355.511 763.953 355.1H763.929ZM629.418 397.196C615.656 405.685 601.132 413.159 589.68 426.098C604.554 427.658 625.645 411.973 630.421 396.651L630.748 396.893C630.748 396.893 630.446 396.784 629.418 397.208V397.196ZM628.789 345.715C633.058 346.03 637.206 345.909 642.019 342.341C636.335 341.205 632.09 339.814 627.688 341.362C624.713 342.414 624.617 343.95 628.789 345.715Z" fill="white" fill-opacity="0.5"/>
<path d="M344.069 132.815C341.819 124.301 345.024 118.291 350.756 113.176C356.863 107.722 363.853 104.251 372.076 103.465C382.779 102.437 386.54 103.924 393.723 112.087C396.009 112.003 397.194 109.947 399.008 109.028C404.909 106.029 410.157 108.157 410.605 114.675C411.052 121.109 414.704 122.753 419.832 123.273C428.14 124.12 436.218 122.79 444.115 120.262C448.904 118.726 453.572 116.767 458.397 115.377C462.641 114.155 466.572 115.038 468.216 119.633C469.813 124.108 467.721 127.554 463.585 129.32C454.551 133.165 445.276 136.298 435.468 137.592C428.612 138.486 421.791 139.272 414.91 137.664C411.778 136.938 408.186 136.527 406.118 134.29C400.023 127.699 394.763 130.275 388.402 134.06C380.215 138.946 371.363 142.634 361.447 142.683C353.985 142.719 347.914 140.433 344.081 132.815H344.069ZM369.549 119.029C365.461 120.673 361.386 122.33 358.774 127.312C364.651 128.546 369.234 126.768 373.612 124.628C375.898 123.503 380.457 123.709 379.429 119.875C378.643 116.949 374.87 118.424 372.33 118.412C371.81 118.412 371.29 118.569 369.549 119.041V119.029Z" fill="white" fill-opacity="0.5"/>
<path d="M561.673 319.302C555.143 312.808 556.062 307.886 563.802 305.045C566.002 304.234 568.288 303.545 570.586 303.061C574.31 302.287 577.515 303.303 579.075 306.967C580.599 310.559 579.341 313.715 576.306 315.977C572.158 319.073 567.466 320.427 561.673 319.29V319.302Z" fill="white" fill-opacity="0.5"/>
<path d="M700.742 80.2215C703.257 79.0726 705.313 79.0242 707.369 79.7377C711.698 81.2252 714.492 85.5787 713.452 89.4485C712.4 93.3666 709.582 94.842 705.7 94.3341C701.069 93.7173 697.368 89.4485 697.658 85.2159C697.791 83.2447 698.904 81.8298 700.754 80.2336L700.742 80.2215Z" fill="white" fill-opacity="0.5"/>
</g>
</svg>
