<svg width="119" height="51" viewBox="0 0 119 51" fill="none" xmlns="http://www.w3.org/2000/svg">
<path d="M104.501 4.35515C103.897 7.01895 102.549 9.1917 101.015 11.2631C99.5867 13.1923 98.018 15.0006 96.2817 16.6589C95.7907 17.1285 95.5081 17.6449 95.4282 18.3153C95.2217 20.0184 95.1379 21.7254 95.3211 23.4324C95.5081 25.1648 96.3071 25.611 97.8407 24.814C99.3704 24.019 100.695 22.9336 101.843 21.6436C102.155 21.2928 102.439 20.9148 102.742 20.5562C103.219 19.9892 103.784 19.615 104.53 19.9989C105.24 20.3633 105.403 21.0219 105.242 21.7527C105.074 22.5049 104.869 23.2531 104.984 24.0307C105.134 25.0459 105.516 25.27 106.481 24.9114C107.539 24.5178 108.412 23.8222 109.277 23.1245C109.577 22.8829 109.848 22.6042 110.16 22.3821C111.212 21.6358 112.14 21.9125 112.602 23.0914C113.075 24.3015 113.364 24.4204 114.58 23.943C115.31 23.6565 115.899 23.1713 116.489 22.6705C117.265 22.0138 117.931 21.9963 118.411 22.5477C118.876 23.0836 118.777 23.7968 118.056 24.4613C116.869 25.5525 115.529 26.3573 113.866 26.4879C112.798 26.5717 111.797 26.4548 111.097 25.5214C110.772 25.0868 110.495 25.2213 110.141 25.4785C109.554 25.9053 108.962 26.3359 108.328 26.6847C105.46 28.2612 103.689 27.6181 102.504 24.5139C101.773 25.0537 101.079 25.6032 100.351 26.1001C99.2846 26.8231 98.1875 27.4817 96.843 27.5538C95.0833 27.6493 94.0466 26.9809 93.3588 25.3285C92.8326 24.0657 92.9067 22.7329 92.8502 21.4136C92.8365 21.1155 92.8814 20.8134 92.8599 20.5172C92.8307 20.1275 92.6261 19.9716 92.2656 20.2035C92.0162 20.3652 91.7921 20.5699 91.5563 20.7511C89.6583 22.2126 87.7759 23.6935 85.6947 24.8959C84.4262 25.6285 83.0894 26.1683 81.6084 26.3184C79.1297 26.5697 77.5202 24.8705 78.1067 22.4406C78.5724 20.5075 79.7981 19.1181 81.6961 18.3815C82.1482 18.2061 82.6139 18.1867 83.0855 18.2042C83.826 18.2334 84.3443 18.5861 84.3697 19.35C84.395 20.1158 83.9117 20.5289 83.1615 20.5601C81.8091 20.6166 81.0959 21.4896 80.5854 22.5711C80.108 23.5825 80.4587 24.0307 81.5694 23.9098C82.6587 23.791 83.6253 23.3252 84.5431 22.7738C87.5245 20.983 90.2 18.7829 92.8638 16.5673C93.2945 16.2107 93.4172 15.7528 93.5283 15.2345C94.2824 11.6743 95.2295 8.17645 97.0066 4.95923C97.6926 3.716 98.5013 2.56434 99.5009 1.55689C99.8595 1.19444 100.253 0.853431 100.676 0.568928C101.545 -0.0137177 102.48 -0.235864 103.453 0.32145C104.373 0.847585 104.671 1.71668 104.651 2.71439C104.641 3.22494 104.565 3.73548 104.499 4.3532L104.501 4.35515ZM97.5912 11.7288C99.082 9.91075 100.516 8.05174 101.479 5.88484C101.937 4.85595 102.362 3.81148 102.176 2.58968C99.9082 3.94204 96.9735 9.39046 96.878 12.3212C97.182 12.3154 97.2814 12.0406 97.5912 11.7288Z" fill="#605043"/>
<path d="M18.7509 10.809C13.6513 14.9869 9.15966 19.5954 5.75147 25.1744C4.18281 27.7427 2.95127 30.4591 2.43098 33.4542C2.40954 33.5809 2.36667 33.7017 2.33744 33.8264C2.08996 34.8241 1.62424 35.2684 0.936364 35.1593C0.195878 35.0424 -0.127598 34.3642 0.0458316 33.3334C0.796061 28.8885 2.81291 24.9951 5.40267 21.3901C9.01936 16.3548 13.3239 11.9684 18.2793 8.2309C19.544 7.27606 20.8905 6.44594 22.3286 5.77171C24.0766 4.95327 25.9063 4.66098 27.8238 4.82077C30.0336 5.00589 31.7094 6.04062 32.8611 7.91912C34.0459 9.85218 34.5174 12.023 34.9227 14.2133C35.2871 16.1872 35.5814 18.1768 36.0198 20.1332C36.8051 23.6369 37.8087 24.0598 40.8486 22.2144C43.83 20.4061 46.4159 18.0989 48.9004 15.6747C49.9117 14.6887 50.9095 13.6891 51.9481 12.7342C52.5989 12.136 53.3238 12.1262 53.774 12.6134C54.2377 13.1162 54.1812 13.7768 53.4992 14.414C50.3755 17.333 47.4331 20.4548 43.8963 22.9101C42.8771 23.6194 41.8502 24.3131 40.7278 24.8529C37.5943 26.3611 35.3203 25.4102 34.2037 22.0994C33.6425 20.4353 33.3833 18.6971 33.0735 16.9745C32.7773 15.3357 32.5201 13.6891 32.0777 12.0814C31.8614 11.2961 31.5964 10.5303 31.234 9.80151C30.2226 7.76712 28.6091 6.89803 26.3214 7.08899C24.3806 7.25073 22.7086 8.07891 21.1224 9.12338C20.3371 9.63977 19.5869 10.2107 18.747 10.809H18.7509Z" fill="#605043"/>
<path d="M53.9921 24.9464C53.6297 23.5746 54.1461 22.6061 55.0697 21.7818C56.0538 20.903 57.1801 20.3437 58.5052 20.217C60.2297 20.0514 60.8358 20.2911 61.9933 21.6064C62.3616 21.5928 62.5525 21.2615 62.8448 21.1134C63.7958 20.6302 64.6415 20.9731 64.7136 22.0234C64.7857 23.0601 65.3742 23.3251 66.2004 23.4089C67.5391 23.5453 68.8408 23.331 70.1133 22.9237C70.885 22.6762 71.6371 22.3606 72.4146 22.1365C73.0986 21.9396 73.7319 22.0819 73.9969 22.8224C74.2542 23.5434 73.9171 24.0987 73.2506 24.3833C71.795 25.0029 70.3004 25.5076 68.72 25.7161C67.6151 25.8603 66.5161 25.987 65.4073 25.7278C64.9026 25.6109 64.3239 25.5446 63.9906 25.1841C63.0085 24.1221 62.1609 24.5372 61.1359 25.1471C59.8166 25.9344 58.3902 26.5287 56.7923 26.5365C55.59 26.5424 54.6118 26.1741 53.9941 24.9464H53.9921ZM58.0979 22.725C57.4393 22.99 56.7826 23.2569 56.3617 24.0598C57.3087 24.2585 58.0473 23.9721 58.7527 23.6272C59.121 23.446 59.8556 23.4791 59.69 22.8614C59.5633 22.3898 58.9553 22.6275 58.5461 22.6256C58.4623 22.6256 58.3785 22.6509 58.0979 22.7269V22.725Z" fill="#605043"/>
<path d="M111.466 16.4717C111.871 16.2866 112.202 16.2788 112.533 16.3937C113.231 16.6334 113.681 17.3349 113.514 17.9585C113.344 18.5899 112.89 18.8276 112.264 18.7458C111.518 18.6464 110.922 17.9585 110.969 17.2765C110.99 16.9589 111.169 16.7309 111.467 16.4736L111.466 16.4717Z" fill="#605043"/>
<path d="M68.3157 46.3282C68.2811 46.3282 68.2293 46.2937 68.1602 46.2246C68.1026 46.167 68.0738 46.1209 68.0738 46.0864C68.0968 45.9251 68.1141 45.7581 68.1256 45.5854C68.1487 45.4011 68.1659 45.2456 68.1775 45.1189V45.0153C67.9586 45.3378 67.6477 45.6257 67.2446 45.8791C66.853 46.1209 66.4038 46.2419 65.897 46.2419C65.2521 46.2419 64.6819 46.0806 64.1867 45.7581C63.6915 45.4241 63.2999 44.9865 63.0119 44.4452C62.7355 43.8923 62.5973 43.2992 62.5973 42.6657C62.5973 41.9171 62.7643 41.2433 63.0983 40.6444C63.4438 40.034 63.9218 39.556 64.5322 39.2105C65.1426 38.8535 65.851 38.675 66.6572 38.675C66.853 38.675 67.0488 38.6922 67.2446 38.7268C67.4519 38.7498 67.6304 38.7844 67.7801 38.8305C67.9183 38.865 67.9932 38.8823 68.0047 38.8823C68.0623 38.8823 68.0911 38.7844 68.0911 38.5886V36.4118C68.0911 35.9741 68.0335 35.6689 67.9183 35.4962C67.8031 35.3234 67.6189 35.214 67.3655 35.1679C67.2388 35.1334 67.1755 35.047 67.1755 34.9088C67.1755 34.7821 67.233 34.7015 67.3482 34.6669C67.7974 34.5633 68.2178 34.4481 68.6094 34.3214C69.0125 34.1832 69.3407 34.0565 69.5941 33.9413C69.7093 33.8953 69.7899 33.8665 69.836 33.855C69.8935 33.8319 69.9281 33.8204 69.9396 33.8204C70.0548 33.8204 70.1124 33.878 70.1124 33.9932C70.1124 33.9932 70.1066 34.0623 70.0951 34.2005C70.0836 34.3387 70.0663 34.5287 70.0433 34.7706C70.0318 35.0009 70.0202 35.2658 70.0087 35.5653L69.9569 43.9787C69.9569 44.3703 69.9857 44.6525 70.0433 44.8252C70.1009 44.998 70.1988 45.0844 70.337 45.0844C70.3945 45.0844 70.4694 45.0844 70.5616 45.0844C70.6537 45.0729 70.8149 45.0556 71.0453 45.0325C71.218 45.021 71.3044 45.0786 71.3044 45.2053C71.3044 45.2974 71.2699 45.3896 71.2008 45.4817C71.1432 45.5623 71.0856 45.6027 71.028 45.6027C70.6364 45.6487 70.2391 45.7236 69.836 45.8272C69.4328 45.9309 69.024 46.0633 68.6094 46.2246C68.5287 46.2591 68.4654 46.2822 68.4193 46.2937C68.3848 46.3167 68.3502 46.3282 68.3157 46.3282ZM66.6917 45.1535C66.9106 45.1535 67.1524 45.1016 67.4173 44.998C67.6822 44.8828 67.9068 44.7273 68.0911 44.5315V40.9381C68.0911 40.6963 68.0105 40.4602 67.8492 40.2298C67.688 39.9879 67.4749 39.7921 67.21 39.6424C66.9451 39.4812 66.6629 39.4006 66.3635 39.4006C66.0871 39.4006 65.8164 39.5042 65.5515 39.7115C65.2866 39.9073 65.062 40.2125 64.8777 40.6272C64.705 41.0418 64.6186 41.5716 64.6186 42.2166C64.6186 42.7463 64.6819 43.2013 64.8086 43.5814C64.9468 43.9499 65.1196 44.2494 65.3269 44.4797C65.5342 44.7101 65.7588 44.8828 66.0007 44.998C66.2425 45.1016 66.4729 45.1535 66.6917 45.1535ZM77.3055 46.2419C76.6721 46.2419 76.1135 46.0806 75.6298 45.7581C75.146 45.4356 74.766 44.9922 74.4895 44.4279C74.2131 43.852 74.0749 43.2013 74.0749 42.4757C74.0749 41.7731 74.2362 41.1339 74.5587 40.5581C74.8927 39.9707 75.3361 39.5042 75.8889 39.1587C76.4417 38.8132 77.0464 38.6404 77.7029 38.6404C78.1866 38.6404 78.6185 38.7441 78.9986 38.9514C79.3787 39.1472 79.6781 39.4236 79.8969 39.7806C80.1273 40.1262 80.2425 40.5177 80.2425 40.9554C80.2425 41.37 80.0639 41.5773 79.7069 41.5773H76.1999C76.0386 41.5773 75.9177 41.6234 75.8371 41.7155C75.768 41.7962 75.7334 41.9517 75.7334 42.182C75.7334 42.6657 75.8371 43.1034 76.0444 43.495C76.2632 43.8866 76.5512 44.1975 76.9082 44.4279C77.2652 44.6582 77.6741 44.7734 78.1348 44.7734C78.4688 44.7734 78.774 44.7101 79.0504 44.5834C79.3384 44.4452 79.609 44.2609 79.8624 44.0305C79.9085 43.996 79.9488 43.9672 79.9833 43.9442C80.0179 43.9096 80.0524 43.8923 80.087 43.8923C80.2022 43.8923 80.2597 43.9614 80.2597 44.0996C80.2597 44.2609 80.1906 44.4567 80.0524 44.687C79.9142 44.9519 79.7127 45.2053 79.4478 45.4472C79.1944 45.689 78.8834 45.8791 78.5149 46.0173C78.1463 46.167 77.7432 46.2419 77.3055 46.2419ZM76.1999 40.9036H77.4265C77.7259 40.9036 77.9505 40.8978 78.1002 40.8863C78.25 40.8748 78.3939 40.8517 78.5321 40.8172C78.5897 40.8057 78.63 40.7596 78.6531 40.679C78.6761 40.5868 78.6876 40.4832 78.6876 40.368C78.6876 40.057 78.5667 39.7979 78.3248 39.5906C78.0945 39.3718 77.8065 39.2624 77.461 39.2624C77.2192 39.2624 76.9831 39.3372 76.7527 39.4869C76.5224 39.6251 76.3323 39.8037 76.1826 40.0225C76.0329 40.2413 75.9638 40.4659 75.9753 40.6963C75.9753 40.8345 76.0501 40.9036 76.1999 40.9036ZM85.8434 46.2419C85.4748 46.2419 85.1178 46.19 84.7723 46.0864C84.4383 45.9942 84.1331 45.8503 83.8567 45.6545C83.776 45.4932 83.7127 45.2399 83.6666 44.8943C83.6321 44.5488 83.6148 44.2091 83.6148 43.875C83.6148 43.7368 83.7127 43.6677 83.9085 43.6677C83.9891 43.6677 84.0582 43.6908 84.1158 43.7368C84.1734 43.7829 84.2137 43.8347 84.2367 43.8923C84.4325 44.3991 84.6802 44.808 84.9796 45.1189C85.2791 45.4184 85.6188 45.5681 85.9989 45.5681C86.3214 45.5681 86.5748 45.4702 86.759 45.2744C86.9433 45.0671 87.0354 44.831 87.0354 44.5661C87.0354 44.2551 86.9203 43.996 86.6899 43.7887C86.4711 43.5814 86.1659 43.3683 85.7743 43.1495C85.4173 42.9537 85.0948 42.7463 84.8068 42.5275C84.5304 42.3087 84.3116 42.0611 84.1504 41.7847C83.9891 41.4967 83.9085 41.1627 83.9085 40.7826C83.9085 40.3565 84.0179 39.9822 84.2367 39.6597C84.4556 39.3372 84.7608 39.0838 85.1524 38.8996C85.5555 38.7153 86.0162 38.6231 86.5344 38.6231C86.903 38.6231 87.2312 38.6634 87.5192 38.7441C87.8186 38.8247 88.0259 38.9053 88.1411 38.9859C88.2333 39.1011 88.3081 39.3142 88.3657 39.6251C88.4233 39.9246 88.4521 40.2413 88.4521 40.5753C88.4521 40.679 88.3657 40.7308 88.1929 40.7308C88.1123 40.7308 88.0317 40.7078 87.9511 40.6617C87.8705 40.6156 87.8186 40.5696 87.7956 40.5235C87.6459 40.0974 87.4558 39.7749 87.2255 39.556C86.9951 39.3372 86.7302 39.2278 86.4308 39.2278C86.1659 39.2278 85.924 39.3142 85.7052 39.4869C85.4979 39.6482 85.3942 39.8785 85.3942 40.178C85.3942 40.4198 85.4921 40.6387 85.6879 40.8345C85.8952 41.0303 86.1889 41.2318 86.569 41.4391C87.2946 41.8307 87.8186 42.205 88.1411 42.5621C88.4636 42.9076 88.6248 43.374 88.6248 43.9614C88.6248 44.664 88.383 45.2226 87.8993 45.6372C87.4155 46.0403 86.7302 46.2419 85.8434 46.2419ZM92.2296 46.0518C92.1375 46.0518 92.0626 46.0346 92.005 46C91.9474 45.9539 91.9186 45.8963 91.9186 45.8272C91.9186 45.7351 91.9532 45.666 92.0223 45.6199C92.0914 45.5739 92.172 45.5393 92.2641 45.5163C92.5406 45.4472 92.7364 45.3723 92.8515 45.2917C92.9782 45.2111 93.0416 45.0729 93.0416 44.8771V41.1282C93.0416 40.7596 92.984 40.4832 92.8688 40.2989C92.7536 40.1146 92.5578 39.9995 92.2814 39.9534C92.2238 39.9419 92.1778 39.9131 92.1432 39.867C92.1087 39.8094 92.0914 39.7461 92.0914 39.677C92.0914 39.5157 92.1547 39.4294 92.2814 39.4178C92.8343 39.3027 93.3122 39.1472 93.7153 38.9514C94.13 38.7441 94.4467 38.5828 94.6655 38.4677C94.8268 38.387 94.9304 38.3467 94.9765 38.3467C95.1032 38.3467 95.1665 38.4043 95.1665 38.5195C95.155 38.6807 95.132 38.9053 95.0974 39.1932C95.0629 39.4697 95.0283 39.7691 94.9938 40.0916C94.9707 40.4026 94.9592 40.6963 94.9592 40.9727V44.8598C94.9592 45.0325 95.0225 45.165 95.1492 45.2571C95.2759 45.3493 95.4775 45.4357 95.7539 45.5163C95.846 45.5508 95.9267 45.5911 95.9958 45.6372C96.0649 45.6718 96.0994 45.7351 96.0994 45.8272C96.0994 45.9654 96.0015 46.0346 95.8057 46.0346C95.5869 46.0346 95.3738 46.0288 95.1665 46.0173C94.9707 46.0058 94.7749 45.9942 94.5791 45.9827C94.3949 45.9712 94.1991 45.9654 93.9917 45.9654C93.796 45.9654 93.6059 45.9712 93.4216 45.9827C93.2374 45.9942 93.0473 46.0058 92.8515 46.0173C92.6673 46.0403 92.4599 46.0518 92.2296 46.0518ZM93.9572 37.3447C93.6232 37.3447 93.341 37.2295 93.1107 36.9992C92.8803 36.7688 92.7651 36.4924 92.7651 36.1699C92.7651 35.8129 92.8803 35.5192 93.1107 35.2889C93.341 35.0585 93.6232 34.9433 93.9572 34.9433C94.3027 34.9433 94.5906 35.0585 94.821 35.2889C95.0513 35.5192 95.1665 35.8129 95.1665 36.1699C95.1665 36.4924 95.0513 36.7688 94.821 36.9992C94.5906 37.2295 94.3027 37.3447 93.9572 37.3447ZM102.393 50.9928C101.31 50.9928 100.464 50.8143 99.8534 50.4572C99.243 50.1002 98.9378 49.6107 98.9378 48.9888C98.9378 48.6663 98.9781 48.3956 99.0587 48.1768C99.1509 47.9695 99.3294 47.7737 99.5943 47.5894C99.7901 47.4397 100.003 47.2727 100.234 47.0884C100.464 46.9156 100.677 46.7544 100.873 46.6047L101.685 46.812C101.259 47.0654 100.942 47.3245 100.735 47.5894C100.527 47.8658 100.424 48.1883 100.424 48.5569C100.424 49.0175 100.619 49.4034 101.011 49.7143C101.414 50.0253 101.921 50.1808 102.531 50.1808C103.28 50.1808 103.833 50.0253 104.19 49.7143C104.432 49.507 104.622 49.2594 104.76 48.9715C104.898 48.6835 104.967 48.3898 104.967 48.0904C104.967 47.8716 104.892 47.6931 104.743 47.5548C104.604 47.4282 104.362 47.3187 104.017 47.2266C103.671 47.146 103.199 47.0826 102.6 47.0366C101.437 46.9329 100.614 46.7314 100.13 46.4319C99.6577 46.144 99.4215 45.7409 99.4215 45.2226C99.4215 45.1189 99.4503 45.0153 99.5079 44.9116C99.577 44.7964 99.698 44.6813 99.8707 44.5661C100.078 44.4048 100.251 44.2724 100.389 44.1687C100.539 44.0651 100.66 43.9672 100.752 43.875C100.844 43.7829 100.913 43.6908 100.959 43.5986L101.719 43.9096C101.477 43.9902 101.276 44.1054 101.115 44.2551C100.965 44.3933 100.89 44.52 100.89 44.6352C100.89 44.7619 100.971 44.8771 101.132 44.9807C101.293 45.0729 101.546 45.1477 101.892 45.2053C102.238 45.2629 102.704 45.3147 103.291 45.3608C104.478 45.4414 105.341 45.6257 105.883 45.9136C106.436 46.19 106.712 46.5989 106.712 47.1402C106.712 47.6124 106.585 48.0731 106.332 48.5223C106.079 48.983 105.745 49.3976 105.33 49.7662C104.915 50.1462 104.455 50.4457 103.948 50.6645C103.441 50.8834 102.923 50.9928 102.393 50.9928ZM102.618 43.5814C102.998 43.5814 103.309 43.374 103.551 42.9594C103.792 42.5333 103.913 41.9862 103.913 41.3182C103.913 40.9266 103.85 40.5753 103.723 40.2644C103.608 39.9534 103.447 39.7115 103.24 39.5388C103.032 39.3545 102.796 39.2624 102.531 39.2624C102.289 39.2624 102.065 39.3545 101.857 39.5388C101.662 39.723 101.506 39.9707 101.391 40.2816C101.276 40.5811 101.218 40.9208 101.218 41.3009C101.218 41.7271 101.276 42.1129 101.391 42.4584C101.518 42.8039 101.69 43.0804 101.909 43.2877C102.128 43.4835 102.364 43.5814 102.618 43.5814ZM102.462 44.2897C101.955 44.2897 101.466 44.1687 100.994 43.9269C100.533 43.6735 100.153 43.3395 99.8534 42.9249C99.554 42.4987 99.4043 42.0208 99.4043 41.491C99.4043 40.9266 99.5598 40.4314 99.8707 40.0052C100.182 39.5676 100.591 39.2278 101.097 38.9859C101.604 38.7326 102.145 38.6059 102.721 38.6059C103.067 38.6059 103.389 38.6519 103.689 38.7441C103.988 38.8247 104.305 38.8938 104.639 38.9514C104.881 39.009 105.1 39.0493 105.295 39.0723C105.491 39.0954 105.704 39.1069 105.935 39.1069C106.096 39.1069 106.269 39.1011 106.453 39.0896C106.649 39.0666 106.793 39.055 106.885 39.055C107.058 39.055 107.144 39.1702 107.144 39.4006C107.144 39.5733 107.075 39.7461 106.937 39.9188C106.879 39.9879 106.816 40.0225 106.747 40.0225H106.28C105.981 40.0225 105.791 40.0686 105.71 40.1607C105.687 40.1953 105.67 40.2356 105.658 40.2816C105.647 40.3277 105.635 40.4026 105.624 40.5062C105.624 40.6099 105.624 40.7654 105.624 40.9727C105.624 41.5716 105.474 42.1244 105.174 42.6312C104.887 43.1264 104.501 43.5295 104.017 43.8405C103.545 44.1399 103.026 44.2897 102.462 44.2897ZM110.177 46.0518C110.084 46.0518 110.004 46.0346 109.935 46C109.866 45.9539 109.831 45.8963 109.831 45.8272C109.831 45.7351 109.866 45.666 109.935 45.6199C110.015 45.5739 110.113 45.5335 110.228 45.499C110.401 45.4529 110.557 45.3896 110.695 45.309C110.845 45.2283 110.919 45.0729 110.919 44.8425V40.9727C110.919 40.7078 110.879 40.4832 110.798 40.2989C110.729 40.1031 110.574 39.9764 110.332 39.9188C110.286 39.8958 110.246 39.867 110.211 39.8325C110.177 39.7864 110.159 39.7173 110.159 39.6251C110.159 39.4754 110.211 39.389 110.315 39.366C110.718 39.2739 111.115 39.1529 111.507 39.0032C111.91 38.842 112.261 38.675 112.561 38.5022C112.607 38.4792 112.653 38.4504 112.699 38.4158C112.745 38.3813 112.791 38.364 112.837 38.364C112.895 38.364 112.929 38.387 112.941 38.4331C112.964 38.4677 112.975 38.508 112.975 38.554C112.975 38.6347 112.958 38.7844 112.923 39.0032C112.9 39.222 112.889 39.4121 112.889 39.5733C112.889 39.6194 112.889 39.6712 112.889 39.7288C112.9 39.7749 112.912 39.8037 112.923 39.8152C113.315 39.4466 113.718 39.1587 114.133 38.9514C114.559 38.7441 115.037 38.6404 115.567 38.6404C116.154 38.6404 116.644 38.865 117.035 39.3142C117.438 39.7634 117.64 40.3565 117.64 41.0936V44.8598C117.64 45.0901 117.709 45.2399 117.847 45.309C117.985 45.3781 118.141 45.4414 118.314 45.499C118.406 45.5335 118.492 45.5796 118.573 45.6372C118.653 45.6833 118.694 45.7524 118.694 45.8445C118.694 45.9136 118.653 45.9654 118.573 46C118.504 46.0346 118.434 46.0518 118.365 46.0518C118.135 46.0518 117.933 46.0403 117.761 46.0173C117.588 46.0058 117.415 45.9942 117.242 45.9827C117.081 45.9712 116.897 45.9654 116.69 45.9654C116.494 45.9654 116.31 45.9712 116.137 45.9827C115.964 45.9942 115.785 46.0058 115.601 46.0173C115.428 46.0403 115.227 46.0518 114.997 46.0518C114.939 46.0518 114.876 46.0346 114.807 46C114.737 45.9654 114.703 45.9136 114.703 45.8445C114.703 45.7524 114.737 45.6833 114.807 45.6372C114.876 45.5796 114.956 45.5335 115.048 45.499C115.221 45.4414 115.371 45.3781 115.498 45.309C115.636 45.2399 115.705 45.0901 115.705 44.8598V41.3528C115.705 40.8921 115.59 40.5293 115.359 40.2644C115.141 39.9995 114.841 39.867 114.461 39.867C114.15 39.867 113.879 39.9131 113.649 40.0052C113.419 40.0974 113.194 40.2298 112.975 40.4026C112.929 40.4371 112.895 40.4889 112.872 40.5581C112.849 40.6156 112.837 40.679 112.837 40.7481V44.8598C112.837 45.0901 112.9 45.2456 113.027 45.3262C113.165 45.3953 113.321 45.4529 113.494 45.499C113.735 45.5796 113.856 45.689 113.856 45.8272C113.856 45.8963 113.828 45.9539 113.77 46C113.712 46.0346 113.638 46.0518 113.545 46.0518C113.315 46.0518 113.113 46.0403 112.941 46.0173C112.768 46.0058 112.601 45.9942 112.44 45.9827C112.278 45.9712 112.094 45.9654 111.887 45.9654C111.691 45.9654 111.507 45.9712 111.334 45.9827C111.161 45.9942 110.983 46.0058 110.798 46.0173C110.614 46.0403 110.407 46.0518 110.177 46.0518Z" fill="#605043"/>
</svg>
